<svg xmlns="http://www.w3.org/2000/svg" viewBox="0 0 473.95 511.94"><defs><style>.cls-1{fill:#39bcdb;}.cls-1,.cls-2{fill-rule:evenodd;}.cls-2{fill:#eb5943;}</style></defs><title>Ресурс 22</title><g id="Слой_2" data-name="Слой 2"><g id="Слой_1-2" data-name="Слой 1"><path class="cls-1" d="M111.74,41.75,112,112H42ZM0,123V500.94a11.31,11.31,0,0,0,11,11H353c14.74,0,11-20.81,11-33v-134c-7.29-1.67-10.29-3.71-19.56-3.6-3.63,0-3.46.37-3.46-4.39l-1,151H24V136H125a11.31,11.31,0,0,0,11-11V24H340V61c3.34.88,2.35,1,5,3,6.49,4.71,11.08,5.13,19,7l-.06-60.94C363.23,4.79,358.89,0,353,0H123c-7.46,0-26.87,22.37-32.74,28.26l-77,77C9.24,109.25,0,116.19,0,123Z"/><path class="cls-2" d="M375,248c-10.63,0-18.06-.48-26.79-9.21-14-14-10.69-36.82.6-47,.6-.51,3.26-2.47,4-3,14.57-10.23,35.23-6.38,45.38,8C413.43,218.41,396.4,248,375,248Zm-3-92c-7.37,0-15.17.68-20,3l-13-14a183,183,0,0,0-16,10,65.13,65.13,0,0,0,3.32,8.73c1.28,3.2,2.38,6.52,3.69,9.27-2.95,2-4.45,4.28-6.72,7.29A52.21,52.21,0,0,0,318,189l-19-1c-1,2.1-2,6.43-2.58,9.44-.94,4.37-1.59,6-2.44,9.58,5.75,3,12.27,5,18,8,0,8.33.34,14.43,3,20l-14,13,9,16c4.05-.34,6.49-1.76,9.86-3.12,1.53-.62,2.64-1.19,4.14-1.87,1.73-.77,3.32-1.22,5-2,2.69,4.05,10.69,10.77,16,12,0,7.8-1,11.79-1,20,6.66.57,12.84,3.49,19,4a46,46,0,0,0,3.63-8.36l2.66-6.38c3.63-5.75,9.64-.45,21.71-6.26,5.19,7.77,9.92,10,11,14,4.14-.34,9.61-4.08,13.38-6.6,2.32-1.53,1.93-1.67,4.62-2.38a53.91,53.91,0,0,0-3.15-8.87L413,259c2.13-3.15,4-4,6.43-7.57a82.89,82.89,0,0,0,5.56-9.44c21.09,0,17.77,5.24,20.89-6.12,1.53-5.61,2.13-5.24,2.13-11.88-3.69-1.93-12.76-6-17-7,0-4.28.2-7.48-.54-11.45-.85-4.39-1.62-6-2.47-9.52,4.82-3.23,10.35-10,14-11-.31-3.74-7.68-14.57-10-18-5.33,2.55-11.79,4.25-17,7-6-4.05-7.71-7.09-17-12l1-19c-4.9-2.35-13.89-2.55-19-5-1.42,2.69-2.72,6.15-4,9-1.45,3.26-2.38,5.9-4,9Z"/><path class="cls-2" d="M237,137c0-7.74.23-13.18,7.2-19.81,17.46-16.58,48,1.67,38.13,27.13C273.51,166.88,237,160.47,237,137Zm5-60,1,12c-4.65,2.47-12.27,6-15,10-3.6-2.41-7.4-4.59-11-7l-7.88,11.11c-2.47,3.32-1.73.37-2.1,4.9,3.4.91,3.49,2.3,9,6-1.19,5.13-2.95,8.53-3.8,14.2-.43,2.75,1.47,5.67-12.19,6.8,0,1.47,1.39,18,4,18,5.56,0,5.92-1,11-1,1.79,3.74,1.59,4.45,4,8,5.56,8.31,7.6,5.16-1,18,6.24,4.17,10.43,9.52,16,10,1.42-5.33,1.79-1,6-9,5.3,2.55,9.92,4,18,4,.94,4,2,8,3,12,5.67,0,14.37-1.25,18-3-1.08-4.62-1-6.21-1-12,5.41-1.25,10.29-5,14.46-8.53.11-.09.37-.31.54-.45l11,6c1.73-2.55,3.2-4.56,5-7s4.05-4.48,5-8c-3.91-2.61-6.32-4-9-8a39.14,39.14,0,0,0,4-17,60.3,60.3,0,0,0,12-3c-.26-3-2.1-15.11-3-17H306c-1.33-2.52-2.58-5.61-4-8-5-8.22-7.06-4.9-2.18-12.22A56.61,56.61,0,0,0,303,91c-5.58-2.95-9.1-6.86-15-10-8.76,13.07-8.19,8.48-14.6,6.6-13.55-3.91-9.5,3.2-13.41-13.61-4.42.11-13.89,2-18,3Z"/><path class="cls-1" d="M182,129c0-27.35,17.26-54.85,41.67-65.28,14-6,34.67-9.35,49.95-3.32l149,91c12,7.29-2.3-4.9,14.34,7.63,7.85,6,16.53,17.15,21.34,26.67,9.21,18.14,11.71,36.85,7.4,57.09-11.11,52.38-70.07,83.2-120.76,58.25-10.74-5.3-14.14-10.63-20.27-15.73-1.76-1.5-1.67-1.08-3.43-2.55-1.3-1.11-1.81-1.81-3-3l-19-17c-2.64-2.35-3.83-2.72-6.52-5.5-1.13-1.16-1.79-1.93-3-3-1.79-1.47-1.67-1-3.46-2.55l-37.5-33.48c-2.64-2.64-4-3.06-6.55-5.47l-31.63-28.35C193.1,171.16,182,151.91,182,129Zm-6-5c0,22.51,3.63,35.43,16.44,52.58,1.81,2.44,3.23,4.82,5.3,6.69,7.46,6.77,25.17,21,32,28l70,62c2.69,2.75,3.88,3.15,6.52,5.47L325,296c38.07,28.83,88.47,27,122.23-6.75C466.89,269.52,474,249,474,220c0-12.25-5.53-30.25-10-38-9.1-15.56-22.17-31.95-39.51-38.47L338,90.94c-2.41-1.42-4.71-2.86-7.46-4.51L307.67,72.28C302.94,68.77,298.86,64.83,294,62c-5.07-2.92-10.66-5.16-16.21-7.85C272.86,51.79,255.06,51,249,51c-16.84,0-42.89,12.1-52.41,24.58-6.89,9-6,5.33-12.93,19.08C180.14,101.59,176,114.07,176,124Z"/><path class="cls-2" d="M70,362.95c0,7.6,4.14,13,11,13H283c14.68,0,14.68-24,0-24H81a11.31,11.31,0,0,0-11,11Z"/><path class="cls-2" d="M70,419c0,7.57,4.14,13,11,13H283c14.68,0,14.68-24,0-24H81a11.31,11.31,0,0,0-11,11Z"/><path class="cls-2" d="M70,307c0,7.6,4.14,13,11,13H283c8.39,0,11-7,11-14,0-3.23-6.75-10-10-10H81a11.31,11.31,0,0,0-11,11Z"/><path class="cls-2" d="M70,251c0,7.6,3.4,12.7,12,13l72-.06h95c-10.74-16-15.28-12.47-23-24H81a11.31,11.31,0,0,0-11,11Z"/><path class="cls-2" d="M377,31l.31-.31s-.4.2-.31.31Z"/><path class="cls-2" d="M369.95,29l.31-.28s-.4.2-.31.28Z"/></g></g></svg>